<svg width="25" height="20" viewBox="0 0 25 20" fill="none" xmlns="http://www.w3.org/2000/svg"><g clip-path="url(#clip0_13131_1211)"><path d="M20.8302 2.22784C19.2563 1.49141 17.5912 0.968141 15.8789 0.671875C15.6656 1.05747 15.4165 1.57609 15.2446 1.98869C13.3985 1.71106 11.5693 1.71106 9.75715 1.98869C9.5854 1.57619 9.33059 1.05747 9.11534 0.671875C7.40139 0.96827 5.73486 1.49287 4.16018 2.23169C1.02668 6.96691 0.177212 11.5844 0.6019 16.1365C2.68024 17.6885 4.69437 18.6314 6.67456 19.2483C7.16672 18.5716 7.60175 17.8551 7.97515 17.1063C7.26417 16.8356 6.57877 16.502 5.92709 16.1095C6.09857 15.9824 6.26603 15.8499 6.42921 15.7123C10.3781 17.5593 14.6689 17.5593 18.5708 15.7123C18.7347 15.849 18.9021 15.9814 19.0728 16.1095C18.4201 16.5031 17.7334 16.8373 17.021 17.1082C17.3966 17.8601 17.8308 18.5773 18.3216 19.2502C20.3036 18.6333 22.3196 17.6905 24.398 16.1365C24.8964 10.8595 23.5467 6.28441 20.8302 2.22784ZM8.51318 13.337C7.32771 13.337 6.35553 12.2303 6.35553 10.8827C6.35553 9.535 7.30699 8.42641 8.51318 8.42641C9.71937 8.42641 10.6916 9.53303 10.6708 10.8827C10.6727 12.2303 9.71946 13.337 8.51318 13.337ZM16.4867 13.337C15.3012 13.337 14.3291 12.2303 14.3291 10.8827C14.3291 9.535 15.2805 8.42641 16.4867 8.42641C17.693 8.42641 18.6651 9.53303 18.6444 10.8827C18.6444 12.2303 17.693 13.337 16.4867 13.337Z" fill="#5865F2"></path></g><defs><clipPath id="clip0_13131_1211"><rect width="24" height="18.6562" fill="white" transform="translate(0.5 0.671875)"></rect></clipPath></defs></svg>